<svg width="48" height="48" viewBox="0 0 48 48" fill="none" xmlns="http://www.w3.org/2000/svg">
<g clip-path="url(#clip0_530_7798)">
<path d="M12.1718 47.8301C10.3152 47.8094 8.47601 47.4689 6.73506 46.8235C5.46374 46.3536 4.31351 45.6055 3.36847 44.6339C2.39424 43.6907 1.64503 42.5402 1.17647 41.2678C0.531648 39.5269 0.191615 37.6879 0.171294 35.8315C0.0287059 32.7454 0 31.8198 0 24C0 16.1802 0.0315294 15.2579 0.169882 12.1694C0.192669 10.3138 0.533121 8.47575 1.17647 6.73506C1.64731 5.46353 2.39546 4.31284 3.36659 3.36659C4.31046 2.39324 5.46123 1.64472 6.73365 1.17647C8.4746 0.531114 10.3137 0.190602 12.1704 0.169882C15.2574 0.0287059 16.1845 0 24 0C31.8155 0 32.7421 0.0315294 35.8306 0.169882C37.6867 0.192508 39.5252 0.532962 41.2663 1.17647C42.5382 1.64533 43.6887 2.39359 44.6329 3.36612C45.6058 4.3107 46.3543 5.46145 46.8235 6.73365C47.469 8.47457 47.8097 10.3137 47.8306 12.1704C47.9718 15.2588 48.0005 16.1835 48.0005 24.0009C48.0005 31.8183 47.9718 32.743 47.8306 35.8315C47.8082 37.6878 47.4675 39.5266 46.8235 41.2678C46.3364 42.5304 45.5902 43.6771 44.6331 44.634C43.676 45.5908 42.5291 46.3367 41.2663 46.8235C39.5254 47.469 37.6863 47.8097 35.8296 47.8306C32.744 47.9718 31.8165 48.0005 23.9991 48.0005C16.1816 48.0005 15.2569 47.9732 12.1713 47.8306" fill="url(#paint0_radial_530_7798)"/>
<path d="M12.1718 47.8301C10.3152 47.8094 8.47601 47.4689 6.73506 46.8235C5.46374 46.3536 4.31351 45.6055 3.36847 44.6339C2.39424 43.6907 1.64503 42.5402 1.17647 41.2678C0.531648 39.5269 0.191615 37.6879 0.171294 35.8315C0.0287059 32.7454 0 31.8198 0 24C0 16.1802 0.0315294 15.2579 0.169882 12.1694C0.192669 10.3138 0.533121 8.47575 1.17647 6.73506C1.64731 5.46353 2.39546 4.31284 3.36659 3.36659C4.31046 2.39324 5.46123 1.64472 6.73365 1.17647C8.4746 0.531114 10.3137 0.190602 12.1704 0.169882C15.2574 0.0287059 16.1845 0 24 0C31.8155 0 32.7421 0.0315294 35.8306 0.169882C37.6867 0.192508 39.5252 0.532962 41.2663 1.17647C42.5382 1.64533 43.6887 2.39359 44.6329 3.36612C45.6058 4.3107 46.3543 5.46145 46.8235 6.73365C47.469 8.47457 47.8097 10.3137 47.8306 12.1704C47.9718 15.2588 48.0005 16.1835 48.0005 24.0009C48.0005 31.8183 47.9718 32.743 47.8306 35.8315C47.8082 37.6878 47.4675 39.5266 46.8235 41.2678C46.3364 42.5304 45.5902 43.6771 44.6331 44.634C43.676 45.5908 42.5291 46.3367 41.2663 46.8235C39.5254 47.469 37.6863 47.8097 35.8296 47.8306C32.744 47.9718 31.8165 48.0005 23.9991 48.0005C16.1816 48.0005 15.2569 47.9732 12.1713 47.8306" fill="url(#paint1_radial_530_7798)"/>
<path d="M18.1077 24.1021C18.1078 22.9264 18.4565 21.7772 19.1097 20.7998C19.763 19.8223 20.6914 19.0605 21.7776 18.6108C22.8637 18.161 24.0589 18.0434 25.2119 18.2729C26.365 18.5023 27.424 19.0686 28.2552 19.9C29.0864 20.7314 29.6524 21.7906 29.8816 22.9437C30.1108 24.0967 29.993 25.2919 29.5429 26.378C29.0929 27.4641 28.3309 28.3923 27.3533 29.0453C26.3757 29.6983 25.2264 30.0467 24.0508 30.0465C22.4744 30.0463 20.9627 29.4199 19.8481 28.3051C18.7336 27.1903 18.1076 25.6784 18.1077 24.1021ZM14.894 24.1021C14.894 25.9131 15.4311 27.6835 16.4372 29.1893C17.4434 30.6951 18.8735 31.8687 20.5466 32.5618C22.2198 33.2548 24.0609 33.4361 25.8371 33.0828C27.6134 32.7295 29.2449 31.8574 30.5255 30.5768C31.8061 29.2962 32.6782 27.6647 33.0315 25.8885C33.3848 24.1122 33.2035 22.2711 32.5104 20.5979C31.8174 18.9248 30.6437 17.4947 29.1379 16.4885C27.6321 15.4824 25.8618 14.9453 24.0508 14.9453C22.8483 14.9453 21.6575 15.1821 20.5466 15.6422C19.4356 16.1024 18.4261 16.7769 17.5758 17.6271C16.7255 18.4774 16.0511 19.4869 15.5909 20.5979C15.1308 21.7088 14.894 22.8996 14.894 24.1021ZM31.43 14.5825C31.4299 15.0057 31.5552 15.4195 31.7901 15.7715C32.0251 16.1235 32.3592 16.3979 32.7501 16.56C33.141 16.7221 33.5712 16.7647 33.9863 16.6823C34.4014 16.5999 34.7828 16.3963 35.0822 16.0972C35.3816 15.7981 35.5855 15.4169 35.6683 15.0018C35.751 14.5868 35.7088 14.1565 35.547 13.7655C35.3853 13.3744 35.1112 13.0401 34.7594 12.8048C34.4076 12.5696 33.9939 12.4439 33.5707 12.4437C33.0035 12.444 32.4595 12.6693 32.0583 13.0704C31.6571 13.4714 31.4315 14.0153 31.431 14.5825M16.8475 38.6174C15.7167 38.6049 14.5965 38.398 13.5359 38.0056C12.7668 37.7091 12.0682 37.2549 11.4853 36.6722C10.9023 36.0894 10.4478 35.3911 10.151 34.6221C9.7584 33.5615 9.55146 32.4413 9.53922 31.3105C9.45263 29.431 9.43569 28.8663 9.43569 24.1044C9.43569 19.3425 9.45451 18.7792 9.53922 16.8978C9.55294 15.7672 9.75983 14.6472 10.151 13.5863C10.4474 12.8169 10.9018 12.1182 11.4848 11.5352C12.0678 10.9522 12.7665 10.4978 13.5359 10.2013C14.5964 9.80878 15.7167 9.60184 16.8475 9.58959C18.727 9.503 19.2917 9.48606 24.0517 9.48606C28.8117 9.48606 29.3769 9.50441 31.2583 9.59006C32.3889 9.60378 33.5089 9.81068 34.5698 10.2018C35.3392 10.4983 36.0379 10.9527 36.6209 11.5357C37.2039 12.1187 37.6583 12.8174 37.9547 13.5868C38.3473 14.6473 38.5542 15.7675 38.5665 16.8983C38.6531 18.7807 38.67 19.3425 38.67 24.1049C38.67 28.8672 38.6526 29.4301 38.5665 31.3115C38.5533 32.4422 38.3464 33.5622 37.9547 34.623C37.658 35.392 37.2035 36.0904 36.6205 36.6731C36.0375 37.2559 35.3389 37.7101 34.5698 38.0065C33.5093 38.3991 32.3891 38.6061 31.2583 38.6183C29.3787 38.7049 28.814 38.7218 24.0517 38.7218C19.2893 38.7218 18.7265 38.7044 16.8475 38.6183M16.6997 6.37876C15.2201 6.40785 13.7561 6.6879 12.3703 7.20699C11.1856 7.66505 10.1097 8.36561 9.21151 9.26376C8.31336 10.1619 7.6128 11.2378 7.15474 12.4225C6.63573 13.8084 6.35568 15.2723 6.32652 16.7519C6.23852 18.6531 6.21875 19.2611 6.21875 24.1039C6.21875 28.9468 6.23899 29.5543 6.32652 31.456C6.35567 32.9356 6.63572 34.3995 7.15474 35.7854C7.61282 36.97 8.3134 38.0459 9.21154 38.9441C10.1097 39.8422 11.1856 40.5428 12.3703 41.0009C13.7562 41.5197 15.2201 41.7998 16.6997 41.8291C18.6018 41.9157 19.2089 41.9369 24.0517 41.9369C28.8945 41.9369 29.502 41.9167 31.4037 41.8291C32.8833 41.7999 34.3472 41.5199 35.7331 41.0009C36.9178 40.5428 37.9937 39.8422 38.8918 38.9441C39.79 38.0459 40.4905 36.97 40.9486 35.7854C41.4683 34.3997 41.7484 32.9356 41.7769 31.456C41.8635 29.5534 41.8832 28.9468 41.8832 24.1039C41.8832 19.2611 41.863 18.6536 41.7769 16.7519C41.7478 15.2723 41.4677 13.8084 40.9486 12.4225C40.4906 11.238 39.7902 10.1623 38.8923 9.26418C37.9944 8.36606 36.9189 7.66536 35.7345 7.20699C34.3487 6.68757 32.8847 6.40751 31.4051 6.37876C29.5035 6.2917 28.8959 6.271 24.054 6.271C19.2122 6.271 18.6032 6.29123 16.7006 6.37876" fill="white"/>
</g>
<defs>
<radialGradient id="paint0_radial_530_7798" cx="0" cy="0" r="1" gradientUnits="userSpaceOnUse" gradientTransform="translate(3.10635 46.9487) scale(60.9421)">
<stop offset="0.09" stop-color="#FA8F21"/>
<stop offset="0.78" stop-color="#D82D7E"/>
</radialGradient>
<radialGradient id="paint1_radial_530_7798" cx="0" cy="0" r="1" gradientUnits="userSpaceOnUse" gradientTransform="translate(33.248 45.407) scale(53.6296)">
<stop offset="0.64" stop-color="#8C3AAA" stop-opacity="0"/>
<stop offset="1" stop-color="#8C3AAA"/>
</radialGradient>
<clipPath id="clip0_530_7798">
<rect width="48" height="48" fill="white"/>
</clipPath>
</defs>
</svg>
